<?xml version="1.0" encoding="UTF-8" standalone="no"?><!DOCTYPE svg PUBLIC "-//W3C//DTD SVG 1.1//EN" "http://www.w3.org/Graphics/SVG/1.1/DTD/svg11.dtd"><!-- Generated by graphviz version 2.40.1 (20161225.0304)
 --><!-- Title: G Pages: 1 --><svg xmlns="http://www.w3.org/2000/svg" xmlns:xlink="http://www.w3.org/1999/xlink" width="574pt" height="522pt" viewBox="0.00 0.00 573.96 522.40">
<g id="graph0" class="graph" transform="scale(1 1) rotate(0) translate(4 518.4)">
<title>G</title>
<polygon fill="#ffffff" stroke="transparent" points="-4,4 -4,-518.4 569.9576,-518.4 569.9576,4 -4,4"/>
<g id="clust1" class="cluster">
<title>cluster_0</title>
<polygon fill="#d3d3d3" stroke="#d3d3d3" points="164,-249.6 164,-470.4 430,-470.4 430,-249.6 164,-249.6"/>
<text text-anchor="middle" x="297" y="-453.8" font-family="Times,serif" font-size="14.00" fill="#000000">Client Application</text>
</g>
<g id="clust2" class="cluster">
<title>cluster_1</title>
<polygon fill="none" stroke="#0000ff" points="205,-164.8 205,-241.6 389,-241.6 389,-164.8 205,-164.8"/>
<text text-anchor="middle" x="297" y="-225" font-family="Times,serif" font-size="14.00" fill="#000000">Service API</text>
</g>
<g id="clust3" class="cluster">
<title>cluster_2</title>
<polygon fill="none" stroke="#0000ff" points="8,-8 8,-156.8 430,-156.8 430,-8 8,-8"/>
<text text-anchor="middle" x="219" y="-140.2" font-family="Times,serif" font-size="14.00" fill="#000000">Processor</text>
</g>
<!-- a0 -->
<g id="node1" class="node">
<title>a0</title>
<ellipse fill="#ffffff" stroke="#ffffff" cx="325" cy="-419.6" rx="68.8833" ry="18"/>
<text text-anchor="middle" x="325" y="-415.4" font-family="Times,serif" font-size="14.00" fill="#000000">Add Operation</text>
</g>
<!-- a1 -->
<g id="node2" class="node">
<title>a1</title>
<ellipse fill="#ffffff" stroke="#ffffff" cx="297" cy="-347.6" rx="124.9597" ry="18"/>
<text text-anchor="middle" x="297" y="-343.4" font-family="Times,serif" font-size="14.00" fill="#000000">Check Operation Correctness</text>
</g>
<!-- a0&#45;&gt;a1 -->
<g id="edge1" class="edge">
<title>a0-&gt;a1</title>
<path fill="none" stroke="#000000" d="M317.9344,-401.4314C314.874,-393.5617 311.2221,-384.1712 307.8318,-375.4533"/>
<polygon fill="#000000" stroke="#000000" points="311.0473,-374.0647 304.1607,-366.0133 304.5232,-376.6019 311.0473,-374.0647"/>
</g>
<!-- a2 -->
<g id="node3" class="node">
<title>a2</title>
<ellipse fill="#ffffff" stroke="#ffffff" cx="297" cy="-275.6" rx="79.9356" ry="18"/>
<text text-anchor="middle" x="297" y="-271.4" font-family="Times,serif" font-size="14.00" fill="#000000">Submit Operation</text>
</g>
<!-- a1&#45;&gt;a2 -->
<g id="edge2" class="edge">
<title>a1-&gt;a2</title>
<path fill="none" stroke="#000000" d="M297,-329.4314C297,-321.731 297,-312.5743 297,-304.0166"/>
<polygon fill="#000000" stroke="#000000" points="300.5001,-304.0132 297,-294.0133 293.5001,-304.0133 300.5001,-304.0132"/>
</g>
<!-- b0 -->
<g id="node4" class="node">
<title>b0</title>
<ellipse fill="#d3d3d3" stroke="#000000" cx="297" cy="-190.8" rx="83.9045" ry="18"/>
<text text-anchor="middle" x="297" y="-186.6" font-family="Times,serif" font-size="14.00" fill="#000000">receiveOperation()</text>
</g>
<!-- a2&#45;&gt;b0 -->
<g id="edge4" class="edge">
<title>a2-&gt;b0</title>
<path fill="none" stroke="#000000" d="M297,-257.1997C297,-246.0112 297,-231.4983 297,-218.8954"/>
<polygon fill="#000000" stroke="#000000" points="300.5001,-218.8731 297,-208.8731 293.5001,-218.8731 300.5001,-218.8731"/>
</g>
<!-- c0 -->
<g id="node5" class="node">
<title>c0</title>
<ellipse fill="#d3d3d3" stroke="#000000" cx="337" cy="-106" rx="85.0696" ry="18"/>
<text text-anchor="middle" x="337" y="-101.8" font-family="Times,serif" font-size="14.00" fill="#000000">processOperation()</text>
</g>
<!-- b0&#45;&gt;c0 -->
<g id="edge5" class="edge">
<title>b0-&gt;c0</title>
<path fill="none" stroke="#000000" d="M305.483,-172.8161C310.8923,-161.3484 318.0066,-146.2659 324.107,-133.3332"/>
<polygon fill="#000000" stroke="#000000" points="327.4285,-134.4955 328.5293,-123.958 321.0975,-131.5091 327.4285,-134.4955"/>
</g>
<!-- c1 -->
<g id="node7" class="node">
<title>c1</title>
<ellipse fill="#d3d3d3" stroke="#000000" cx="125" cy="-106" rx="109.3739" ry="18"/>
<text text-anchor="middle" x="125" y="-101.8" font-family="Times,serif" font-size="14.00" fill="#000000">downstream processing...</text>
</g>
<!-- b0&#45;&gt;c1 -->
<g id="edge6" class="edge">
<title>b0-&gt;c1</title>
<path fill="none" stroke="#000000" d="M263.4284,-174.2484C236.434,-160.9396 198.2955,-142.1364 168.8836,-127.6356"/>
<polygon fill="#000000" stroke="#000000" points="170.183,-124.374 159.6661,-123.0912 167.0875,-130.6525 170.183,-124.374"/>
</g>
<!-- c2 -->
<g id="node6" class="node">
<title>c2</title>
<ellipse fill="#d3d3d3" stroke="#000000" cx="288" cy="-34" rx="134.2344" ry="18"/>
<text text-anchor="middle" x="288" y="-29.8" font-family="Times,serif" font-size="14.00" fill="#000000">check inputs and throw if errant</text>
</g>
<!-- c0&#45;&gt;c2 -->
<g id="edge3" class="edge">
<title>c0-&gt;c2</title>
<path fill="none" stroke="#000000" d="M324.6352,-87.8314C319.0491,-79.6232 312.337,-69.7606 306.1928,-60.7323"/>
<polygon fill="#000000" stroke="#000000" points="309.051,-58.7112 300.5313,-52.4133 303.264,-62.6496 309.051,-58.7112"/>
</g>
<!-- d0 -->
<g id="node8" class="node">
<title>d0</title>
<ellipse fill="none" stroke="#000000" cx="401" cy="-496.4" rx="164.9152" ry="18"/>
<text text-anchor="middle" x="401" y="-492.2" font-family="Times,serif" font-size="14.00" fill="#000000">testing at client cannot check backend...</text>
</g>
<!-- d0&#45;&gt;a0 -->
<g id="edge7" class="edge">
<title>d0-&gt;a0</title>
<path fill="none" stroke="#000000" d="M382.9891,-478.1995C373.003,-468.1082 360.4422,-455.4153 349.5664,-444.425"/>
<polygon fill="#000000" stroke="#000000" points="351.8803,-441.7874 342.3585,-437.1412 346.9047,-446.7112 351.8803,-441.7874"/>
</g>
<!-- d0&#45;&gt;c2 -->
<g id="edge8" class="edge">
<title>d0-&gt;c2</title>
<path fill="none" stroke="#000000" d="M427.8415,-478.5062C430.216,-476.0258 432.343,-473.3174 434,-470.4 461.1818,-422.5413 450,-402.6391 450,-347.6 450,-347.6 450,-347.6 450,-190.8 450,-144.3373 460.7985,-123.6488 431,-88 417.1888,-71.4773 397.7649,-60.0036 377.6743,-52.0382"/>
<polygon fill="#000000" stroke="#000000" points="378.6919,-48.6832 368.0985,-48.5116 376.2727,-55.2519 378.6919,-48.6832"/>
</g>
</g>
</svg>