<?xml version="1.0" encoding="UTF-8" standalone="no"?><!DOCTYPE svg PUBLIC "-//W3C//DTD SVG 1.1//EN" "http://www.w3.org/Graphics/SVG/1.1/DTD/svg11.dtd"><!-- Generated by graphviz version 2.40.1 (20161225.0304)
 --><!-- Title: G Pages: 1 --><svg xmlns="http://www.w3.org/2000/svg" xmlns:xlink="http://www.w3.org/1999/xlink" width="454pt" height="414pt" viewBox="0.00 0.00 454.00 414.40">
<g id="graph0" class="graph" transform="scale(1 1) rotate(0) translate(4 410.4)">
<title>G</title>
<polygon fill="#ffffff" stroke="transparent" points="-4,4 -4,-410.4 450,-410.4 450,4 -4,4"/>
<g id="clust1" class="cluster">
<title>cluster_0</title>
<polygon fill="#d3d3d3" stroke="#d3d3d3" points="8,-177.6 8,-398.4 274,-398.4 274,-177.6 8,-177.6"/>
<text text-anchor="middle" x="141" y="-381.8" font-family="Times,serif" font-size="14.00" fill="#000000">Client Application</text>
</g>
<g id="clust2" class="cluster">
<title>cluster_1</title>
<polygon fill="none" stroke="#0000ff" points="49,-92.8 49,-169.6 233,-169.6 233,-92.8 49,-92.8"/>
<text text-anchor="middle" x="141" y="-153" font-family="Times,serif" font-size="14.00" fill="#000000">Service API</text>
</g>
<g id="clust3" class="cluster">
<title>cluster_2</title>
<polygon fill="none" stroke="#0000ff" points="16,-8 16,-84.8 438,-84.8 438,-8 16,-8"/>
<text text-anchor="middle" x="227" y="-68.2" font-family="Times,serif" font-size="14.00" fill="#000000">Processor</text>
</g>
<!-- a0 -->
<g id="node1" class="node">
<title>a0</title>
<ellipse fill="#ffffff" stroke="#ffffff" cx="141" cy="-347.6" rx="68.8833" ry="18"/>
<text text-anchor="middle" x="141" y="-343.4" font-family="Times,serif" font-size="14.00" fill="#000000">Add Operation</text>
</g>
<!-- a1 -->
<g id="node2" class="node">
<title>a1</title>
<ellipse fill="#ffffff" stroke="#ffffff" cx="141" cy="-275.6" rx="124.9597" ry="18"/>
<text text-anchor="middle" x="141" y="-271.4" font-family="Times,serif" font-size="14.00" fill="#000000">Check Operation Correctness</text>
</g>
<!-- a0&#45;&gt;a1 -->
<g id="edge1" class="edge">
<title>a0-&gt;a1</title>
<path fill="none" stroke="#000000" d="M141,-329.4314C141,-321.731 141,-312.5743 141,-304.0166"/>
<polygon fill="#000000" stroke="#000000" points="144.5001,-304.0132 141,-294.0133 137.5001,-304.0133 144.5001,-304.0132"/>
</g>
<!-- a2 -->
<g id="node3" class="node">
<title>a2</title>
<ellipse fill="#ffffff" stroke="#ffffff" cx="141" cy="-203.6" rx="79.9356" ry="18"/>
<text text-anchor="middle" x="141" y="-199.4" font-family="Times,serif" font-size="14.00" fill="#000000">Submit Operation</text>
</g>
<!-- a1&#45;&gt;a2 -->
<g id="edge2" class="edge">
<title>a1-&gt;a2</title>
<path fill="none" stroke="#000000" d="M141,-257.4314C141,-249.731 141,-240.5743 141,-232.0166"/>
<polygon fill="#000000" stroke="#000000" points="144.5001,-232.0132 141,-222.0133 137.5001,-232.0133 144.5001,-232.0132"/>
</g>
<!-- b0 -->
<g id="node4" class="node">
<title>b0</title>
<ellipse fill="#d3d3d3" stroke="#000000" cx="141" cy="-118.8" rx="83.9045" ry="18"/>
<text text-anchor="middle" x="141" y="-114.6" font-family="Times,serif" font-size="14.00" fill="#000000">receiveOperation()</text>
</g>
<!-- a2&#45;&gt;b0 -->
<g id="edge3" class="edge">
<title>a2-&gt;b0</title>
<path fill="none" stroke="#000000" d="M141,-185.1997C141,-174.0112 141,-159.4983 141,-146.8954"/>
<polygon fill="#000000" stroke="#000000" points="144.5001,-146.8731 141,-136.8731 137.5001,-146.8731 144.5001,-146.8731"/>
</g>
<!-- c0 -->
<g id="node5" class="node">
<title>c0</title>
<ellipse fill="#d3d3d3" stroke="#000000" cx="345" cy="-34" rx="85.0696" ry="18"/>
<text text-anchor="middle" x="345" y="-29.8" font-family="Times,serif" font-size="14.00" fill="#000000">processOperation()</text>
</g>
<!-- b0&#45;&gt;c0 -->
<g id="edge4" class="edge">
<title>b0-&gt;c0</title>
<path fill="none" stroke="#000000" d="M193.785,-104.7677C212.1708,-99.2835 232.755,-92.4627 251,-84.8 270.337,-76.6787 290.9288,-65.8221 307.8952,-56.2305"/>
<polygon fill="#000000" stroke="#000000" points="309.983,-59.0679 316.9171,-51.0573 306.501,-52.9954 309.983,-59.0679"/>
</g>
<!-- c1 -->
<g id="node6" class="node">
<title>c1</title>
<ellipse fill="#d3d3d3" stroke="#000000" cx="133" cy="-34" rx="109.3739" ry="18"/>
<text text-anchor="middle" x="133" y="-29.8" font-family="Times,serif" font-size="14.00" fill="#000000">downstream processing...</text>
</g>
<!-- b0&#45;&gt;c1 -->
<g id="edge5" class="edge">
<title>b0-&gt;c1</title>
<path fill="none" stroke="#000000" d="M139.2641,-100.3997C138.2086,-89.2112 136.8395,-74.6983 135.6505,-62.0954"/>
<polygon fill="#000000" stroke="#000000" points="139.1289,-61.7001 134.705,-52.0731 132.1598,-62.3577 139.1289,-61.7001"/>
</g>
</g>
</svg>