<?xml version="1.0" encoding="UTF-8" standalone="no"?><!DOCTYPE svg PUBLIC "-//W3C//DTD SVG 1.1//EN" "http://www.w3.org/Graphics/SVG/1.1/DTD/svg11.dtd"><!-- Generated by graphviz version 2.40.1 (20161225.0304)
 --><!-- Title: G Pages: 1 --><svg xmlns="http://www.w3.org/2000/svg" xmlns:xlink="http://www.w3.org/1999/xlink" width="860pt" height="278pt" viewBox="0.00 0.00 860.00 278.40">
<g id="graph0" class="graph" transform="scale(1 1) rotate(0) translate(4 274.4)">
<title>G</title>
<polygon fill="#ffffff" stroke="transparent" points="-4,4 -4,-274.4 856,-274.4 856,4 -4,4"/>
<g id="clust1" class="cluster">
<title>cluster_0</title>
<polygon fill="#d3d3d3" stroke="#d3d3d3" points="8,-100.8 8,-262.4 206,-262.4 206,-100.8 8,-100.8"/>
<text text-anchor="middle" x="107" y="-245.8" font-family="Times,serif" font-size="14.00" fill="#000000">Repository</text>
</g>
<g id="clust2" class="cluster">
<title>cluster_4</title>
<polygon fill="none" stroke="#000000" points="214,-92.8 214,-185.6 844,-185.6 844,-92.8 214,-92.8"/>
</g>
<g id="clust3" class="cluster">
<title>cluster_2</title>
<polygon fill="none" stroke="#0000ff" points="588,-100.8 588,-177.6 836,-177.6 836,-100.8 588,-100.8"/>
<text text-anchor="middle" x="712" y="-161" font-family="Times,serif" font-size="14.00" fill="#000000">EmbeddingProvider (I/O)</text>
</g>
<g id="clust4" class="cluster">
<title>cluster_3</title>
<polygon fill="none" stroke="#0000ff" points="426,-100.8 426,-177.6 580,-177.6 580,-100.8 426,-100.8"/>
<text text-anchor="middle" x="503" y="-161" font-family="Times,serif" font-size="14.00" fill="#000000">IssueDatabase (I/O)</text>
</g>
<g id="clust5" class="cluster">
<title>cluster_1</title>
<polygon fill="none" stroke="#0000ff" points="101,-8 101,-84.8 381,-84.8 381,-8 101,-8"/>
<text text-anchor="middle" x="241" y="-68.2" font-family="Times,serif" font-size="14.00" fill="#000000">IssueProvider (business logic)</text>
</g>
<!-- a0 -->
<g id="node1" class="node">
<title>a0</title>
<ellipse fill="#ffffff" stroke="#ffffff" cx="122" cy="-211.6" rx="59.6466" ry="18"/>
<text text-anchor="middle" x="122" y="-207.4" font-family="Times,serif" font-size="14.00" fill="#000000">various calls</text>
</g>
<!-- a1 -->
<g id="node2" class="node">
<title>a1</title>
<ellipse fill="#ffffff" stroke="#ffffff" cx="107" cy="-126.8" rx="90.8511" ry="18"/>
<text text-anchor="middle" x="107" y="-122.6" font-family="Times,serif" font-size="14.00" fill="#000000">need the issue report</text>
</g>
<!-- a0&#45;&gt;a1 -->
<g id="edge1" class="edge">
<title>a0-&gt;a1</title>
<path fill="none" stroke="#000000" d="M118.8189,-193.6161C116.8436,-182.4492 114.262,-167.8547 112.0157,-155.1553"/>
<polygon fill="#000000" stroke="#000000" points="115.4166,-154.2878 110.2282,-145.0503 108.5237,-155.5071 115.4166,-154.2878"/>
</g>
<!-- e0 -->
<g id="node3" class="node">
<title>e0</title>
<ellipse fill="none" stroke="#000000" cx="319" cy="-126.8" rx="97.2314" ry="18"/>
<text text-anchor="middle" x="319" y="-122.6" font-family="Times,serif" font-size="14.00" fill="#000000">constructor arguments</text>
</g>
<!-- a0&#45;&gt;e0 -->
<g id="edge2" class="edge">
<title>a0-&gt;e0</title>
<path fill="none" stroke="#000000" d="M167.8433,-200.0057C181.6034,-196.0072 196.5972,-191.1249 210,-185.6 234.7623,-175.3926 261.2342,-161.1968 281.889,-149.3109"/>
<polygon fill="#000000" stroke="#000000" points="283.7729,-152.2641 290.6521,-144.2063 280.2495,-146.2154 283.7729,-152.2641"/>
</g>
<!-- b1 -->
<g id="node8" class="node">
<title>b1</title>
<ellipse fill="#d3d3d3" stroke="#000000" cx="178" cy="-34" rx="68.9177" ry="18"/>
<text text-anchor="middle" x="178" y="-29.8" font-family="Times,serif" font-size="14.00" fill="#000000">getIssueReport</text>
</g>
<!-- a1&#45;&gt;b1 -->
<g id="edge4" class="edge">
<title>a1-&gt;b1</title>
<path fill="none" stroke="#000000" d="M120.6895,-108.9072C131.2976,-95.0421 146.1478,-75.6322 158.0735,-60.0448"/>
<polygon fill="#000000" stroke="#000000" points="161.0558,-61.9067 164.3525,-51.8378 155.4963,-57.6532 161.0558,-61.9067"/>
</g>
<!-- b0 -->
<g id="node7" class="node">
<title>b0</title>
<ellipse fill="#d3d3d3" stroke="#000000" cx="319" cy="-34" rx="54.4527" ry="18"/>
<text text-anchor="middle" x="319" y="-29.8" font-family="Times,serif" font-size="14.00" fill="#000000">constructor</text>
</g>
<!-- e0&#45;&gt;b0 -->
<g id="edge3" class="edge">
<title>e0-&gt;b0</title>
<path fill="none" stroke="#000000" d="M319,-108.4657C319,-95.3742 319,-77.508 319,-62.5573"/>
<polygon fill="#000000" stroke="#000000" points="322.5001,-62.2962 319,-52.2962 315.5001,-62.2962 322.5001,-62.2962"/>
</g>
<!-- c0 -->
<g id="node4" class="node">
<title>c0</title>
<ellipse fill="#d3d3d3" stroke="#000000" cx="757" cy="-126.8" rx="71.2307" ry="18"/>
<text text-anchor="middle" x="757" y="-122.6" font-family="Times,serif" font-size="14.00" fill="#000000">getEmbeddings</text>
</g>
<!-- c1 -->
<g id="node5" class="node">
<title>c1</title>
<ellipse fill="#d3d3d3" stroke="#000000" cx="632" cy="-126.8" rx="35.8921" ry="18"/>
<text text-anchor="middle" x="632" y="-122.6" font-family="Times,serif" font-size="14.00" fill="#000000">search</text>
</g>
<!-- d0 -->
<g id="node6" class="node">
<title>d0</title>
<ellipse fill="#d3d3d3" stroke="#000000" cx="503" cy="-126.8" rx="68.9177" ry="18"/>
<text text-anchor="middle" x="503" y="-122.6" font-family="Times,serif" font-size="14.00" fill="#000000">getIssueReport</text>
</g>
<!-- b1&#45;&gt;d0 -->
<g id="edge5" class="edge">
<title>b1-&gt;d0</title>
<path fill="none" stroke="#000000" d="M197.9488,-51.3145C212.8519,-63.1128 234.3112,-77.8139 256,-84.8 292.8434,-96.6674 392.4103,-83.5649 430,-92.8 441.986,-95.7447 454.3865,-100.7018 465.4902,-105.9331"/>
<polygon fill="#000000" stroke="#000000" points="463.9569,-109.0793 474.4748,-110.3537 467.0473,-102.7984 463.9569,-109.0793"/>
</g>
</g>
</svg>